# xmcd
#
# Track frame offsets:
#	182
#	11895
#	23952
#	37045
#	50292
#	65027
#	81995
#	99862
#	117362
#	129357
#	143360
#	152110
#	161595
#	173417
#	188790
#	204562
#	218072
#	230505
#
# Disc length: 3254 seconds
# Revision: 7
# Processed by: cddbd v1.5.2PL0 Copyright (c) Steve Scherf et al.
# Submitted via: dBpowerAMP V12.0
#
DISCID=ee0cb412
DTITLE=Various Artist - Songs of the West, Vol. 1
DYEAR=1994
DGENRE=Country
TTITLE0=Gene Autry - Back in the Saddle Again
TTITLE1=The Sons of the Pioneers - Tumbling Tumbleweeds
TTITLE2=The Sons of the Pioneers - Cool Water
TTITLE3=Tex Owens - Cattle Call
TTITLE4=Tex Ritter - (Take Me Back to My) Boots and Saddle
TTITLE5=Walter Brennan - Gunfight at the O.K. Corral
TTITLE6=Marty Robbins - Big Iron
TTITLE7=Ian Tyson - Leavin' Cheyenne
TTITLE8=Ian Tyson - Cowboy Blues
TTITLE9=Patsy Montana with Prairie Ramblers - I Want to Be a Cowboy's Sweetheart
TTITLE10=Foy Willing and the Riders of the Purple Sage - Ragtime Cowboy Joe
TTITLE11=Riders in the Sky - Ride Cowboy Ride
TTITLE12=Frankie Laine - Mule Train
TTITLE13=Marty Robbins - The Strawberry Roan
TTITLE14=Riders in the Sky - The Line Rider
TTITLE15=Rex Allen with Victor Young and His Singing Strings - The Last Round Up
TTITLE16=Tex Ritter with Harry Geller and Orchestra - The Wayward Wind
TTITLE17=Roy Rogers and Dale Evans with The Whippoorwills and Orchestra - Happy Trails
EXTD=
EXTT0=
EXTT1=
EXTT2=
EXTT3=
EXTT4=
EXTT5=
EXTT6=
EXTT7=
EXTT8=
EXTT9=
EXTT10=
EXTT11=
EXTT12=
EXTT13=
EXTT14=
EXTT15=
EXTT16=
EXTT17=
PLAYORDER=
